/* XPM */
static char *_21[] = {
/* columns rows colors chars-per-pixel */
"30 55 141 2 ",
"   c #000000",
".  c #141312",
"X  c #191716",
"o  c #191816",
"O  c #181619",
"+  c #1D1C1A",
"@  c #211F1D",
"#  c #252222",
"$  c #282523",
"%  c #2D2A27",
"&  c #2F2C28",
"*  c #302D29",
"=  c #39332F",
"-  c #312B35",
";  c #3E3932",
":  c #38303B",
">  c #462100",
",  c #4D2F12",
"<  c #5A3917",
"1  c #5B3C1F",
"2  c #522A2C",
"3  c #4A3727",
"4  c #4D3A29",
"5  c #543D25",
"6  c #513D28",
"7  c #5A3F28",
"8  c #4F2731",
"9  c #433C35",
"0  c #483F37",
"q  c #4C3C3A",
"w  c #603F2B",
"e  c #55412F",
"r  c #5B432B",
"t  c #484037",
"y  c #4C4339",
"u  c #564333",
"i  c #5A4734",
"p  c #5A4836",
"a  c #54463A",
"s  c #584739",
"d  c #56483A",
"f  c #594839",
"g  c #634429",
"h  c #624B37",
"j  c #694C33",
"k  c #73573C",
"l  c #3E3444",
"z  c #4B195E",
"x  c #46384D",
"c  c #4A3A52",
"v  c #5D335B",
"b  c #51385D",
"n  c #613D48",
"m  c #633950",
"M  c #4F1E66",
"N  c #501D6C",
"B  c #502A61",
"V  c #562568",
"C  c #5C2B75",
"Z  c #5C2978",
"A  c #602F78",
"S  c #643477",
"D  c #683F74",
"F  c #64347C",
"G  c #5A4E47",
"H  c #6A5543",
"J  c #675A4F",
"K  c #725740",
"L  c #755A41",
"P  c #73554E",
"I  c #785C54",
"U  c #7D644C",
"Y  c #67406B",
"T  c #72446F",
"R  c #6F4879",
"E  c #7E5E7C",
"W  c #7A6D64",
"Q  c #846C55",
"!  c #856E58",
"~  c #887256",
"^  c #87715A",
"/  c #8A745D",
"(  c #8C785A",
")  c #8B7561",
"_  c #8F7A65",
"`  c #82766C",
"'  c #8E7D6E",
"]  c #927D69",
"[  c #937E70",
"{  c #968371",
"}  c #998674",
"|  c #9D8B7C",
" . c #A08F79",
".. c #A1907F",
"X. c #663581",
"o. c #6F3E88",
"O. c #723F90",
"+. c #6F4381",
"@. c #7B4B94",
"#. c #804E9D",
"$. c #83539F",
"%. c #876D83",
"&. c #896D82",
"*. c #86678D",
"=. c #8C7286",
"-. c #917789",
";. c #937B8A",
":. c #8A6B9B",
">. c #8C5CA5",
",. c #8F5EAD",
"<. c #9463B3",
"1. c #9B6BB7",
"2. c #AD7DCB",
"3. c #9A8E84",
"4. c #9A838D",
"5. c #A49484",
"6. c #A5978A",
"7. c #AA9B8C",
"8. c #A38F93",
"9. c #A59392",
"0. c #A89793",
"q. c #A69A90",
"w. c #AA9D92",
"e. c #AB979C",
"r. c #AE9E9C",
"t. c #AFA18F",
"y. c #AEA094",
"u. c #B1A394",
"i. c #B4A69A",
"p. c #B6A89C",
"a. c #B8AC9F",
"s. c #B7ABA0",
"d. c #BAADA2",
"f. c #BCB0A4",
"g. c #BEB3A9",
"h. c #C2B8AF",
"j. c #D4CCBE",
"k. c #D5CCC6",
"l. c #DBD4C9",
"z. c #D7CCDC",
"x. c #EBE6F0",
/* pixels */
"                                                            ",
"                                                            ",
"                                                            ",
"                                                            ",
"                                                            ",
"                                                            ",
"                      %             $ a                     ",
"                    a 7 *           i a a                   ",
"                  & a i.a         9 a h.i .                 ",
"                  f u.f.s a a a a i u.s.5.d                 ",
"                X s f.f.| e h H e ' f.s.d.p                 ",
"                s 5.s.6.p.6.w.w.q.s.d.Q i.y = ; .           ",
"          y a a i s.s.Q Q i.a.s.d.6.Q Q g.5.< 9             ",
"              i L s.a.g.Q Q a.s.f...L Q t.w.k = t           ",
"        9 f p 1 6.s.a.k _ s.a./  .i.t.> } p.g i             ",
"            ; U i.s.p.1 U h.P 2 8 v =.5.i.i.| a             ",
"            s y.a.i.s.y.a.4.M >.,.Z N %.a.a.d.i             ",
"            s f.s.s.p.a.a.R Z F o.@.>.A 9.a.g.i X           ",
"          a } d.i.s.i.a.r.A $.@.A C Z O.&.d.d.] ;           ",
"          h i.s.i.i.p.a.[ m >.$.,.o.o.S w ^ d.u.q c :       ",
"        $ s d.i.s.i.p.7.U Q R <.A $.1.T ( ~ t.8.Y z.b       ",
"        q 5.s.s.i.s.s.p.7.j V X.2.C #.z n -.E D I *.B l     ",
"        s p.p.p.p.i.s.p.7.5.%.+.F A D ;.-.' ;.d.Q Y :.c     ",
"      @ i f.p.p.p.s.i.s.a.s.a.i.0.0.p.f.f.a.d.g./ k.x.x     ",
"      y e w.d.p.p.p.p.p.p.p.p.p.p.a.p.p.i.p.p.d.) l.x O     ",
"      f a 6.a.p.p.p.p.p.p.p.p.p.p.p.p.p.p.p.p.f.] e.:       ",
"      e ` p.p.p.p.i.p.p.i.p.p.i.p.p.p.p.p.p.p.f.] r.x       ",
"      a g.p.p.p.p.p.s.i.p.p.p.p.p.p.p.p.p.p.p.f._ j.l .     ",
"    . a d.p.p.p.p.p.p.p.p.p.p.p.p.p.p.p.p.p.p.d._ k.- #     ",
"    & / d.p.p.p.p.p.p.p.p.p.p.p.p.p.p.p.p.p.p.d.] +         ",
"    9 i w.a.p.p.p.p.p.i.p.p.p.p.p.p.p.p.p.p.p.d._ +         ",
"    t 4 3.d.p.p.p.p.p.p.p.p.p.p.p.p.p.p.p.p.p.d._ +         ",
"    y e w.p.p.p.p.p.p.p.p.p.p.p.p.p.p.p.p.p.p.d._ o         ",
"    ; ) d.p.p.p.p.p.p.p.p.p.p.i.p.p.p.p.p.p.p.s._ X         ",
"    + a f.p.p.p.p.p.p.p.p.p.p.p.p.p.i.p.p.p.p.g._ X         ",
"      a f.p.p.p.p.p.p.p.p.p.p.p.p.p.p.p.p.a.U U f           ",
"      d s.p.p.p.s.i.p.p.p.s.p.p.p.p.p.p.p.a...j r           ",
"      d 6.s.p.p.i.s.s...K | s.p.p.p.p.p.p.d.Q Q f           ",
"      = f f.p.p.p.p.s.i.^ L f.p.p.p.p.p.p.p.p.p.d           ",
"        i p.p.p.p.p.s.7.L 6.s.p.p.p.p.p.p.p.a.} 0           ",
"        ; a g.p.p.p.p.p.a.p.p.p.p.p.p.i.p.p.g.i X           ",
"          i 9 d.p.p.p.p.s.i.p.s.p.p.p.p.p.p.w.f             ",
"            r 7.f.s.p.i.p.p.p.p.p.p.p.p.p.g.u +             ",
"            . i q f.d.s.p.p.i.p.p.p.p.p.g.a d               ",
"                a i { p.f.d.d.d.d.d.d.d.a f                 ",
"                  X a i s ) ] [ ] | 3.a a                   ",
"                        @ ; q 9 0 6 G 6                     ",
"                                  s w.d                     ",
"                                  i W e                     ",
"                                  a J h .                   ",
"                                  a 5.! #                   ",
"                                  y d 3 #                   ",
"                                  @ , 5                     ",
"                                                            ",
"                                                            "
};
