/* XPM */
static char *_496072059115[] = {
/* columns rows colors chars-per-pixel */
"20 30 143 2 ",
"   c #000000",
".  c #090702",
"X  c #0B0903",
"o  c #120E04",
"O  c #161104",
"+  c #1A1404",
"@  c #1F1A08",
"#  c #241C07",
"$  c #2C1C03",
"%  c #2D2207",
"&  c #27220A",
"*  c #2F280C",
"=  c #332104",
"-  c #3A2302",
";  c #322609",
":  c #35290A",
">  c #3F3610",
",  c #4A2E04",
"<  c #43350D",
"1  c #4E3C0E",
"2  c #523D0C",
"3  c #473D12",
"4  c #4C3F11",
"5  c #4D4314",
"6  c #524715",
"7  c #564915",
"8  c #564C18",
"9  c #61470D",
"0  c #64480C",
"q  c #7C4C06",
"w  c #784D08",
"e  c #76520D",
"r  c #7C560E",
"t  c #605217",
"y  c #6B5313",
"u  c #6E5918",
"i  c #725613",
"p  c #7B5C13",
"a  c #725E1A",
"s  c #7D6317",
"d  c #74631C",
"f  c #85590B",
"g  c #8C5A09",
"h  c #996008",
"j  c #836619",
"k  c #92751E",
"l  c #96781E",
"z  c #A36709",
"x  c #A47A17",
"c  c #A47D1B",
"v  c #B17D16",
"b  c #827021",
"n  c #917E28",
"m  c #AD821D",
"M  c #B88A1E",
"N  c #9F8222",
"B  c #9D8828",
"V  c #A28323",
"C  c #AA8422",
"Z  c #A78B27",
"A  c #A68E2A",
"S  c #B48D23",
"D  c #AE962E",
"F  c #BD9225",
"G  c #B69728",
"H  c #BEA335",
"J  c #CA8A19",
"K  c #D18913",
"L  c #E9B51C",
"P  c #EBB91E",
"I  c #C48D20",
"U  c #C39223",
"Y  c #C59825",
"T  c #CC9C26",
"R  c #C79728",
"E  c #C69B2D",
"W  c #D89620",
"Q  c #DC9E28",
"!  c #CAA02A",
"~  c #D6A226",
"^  c #D5A32F",
"/  c #DDA32B",
"(  c #DEAC2A",
")  c #C5A832",
"_  c #C5AE3A",
"`  c #DEA630",
"'  c #D4AB33",
"]  c #CFB338",
"[  c #D6B435",
"{  c #D4B239",
"}  c #D9BB3A",
"|  c #E0AC2F",
" . c #E9B423",
".. c #ECBD23",
"X. c #E9B52C",
"o. c #EBBB2C",
"O. c #E3AE36",
"+. c #E2B131",
"@. c #E4B836",
"#. c #EAB936",
"$. c #E3B33A",
"%. c #E8B63B",
"&. c #E3BA3E",
"*. c #EBBB3B",
"=. c #EDC226",
"-. c #EEC429",
";. c #EFC82C",
":. c #F0CA2B",
">. c #EDC334",
",. c #EFCB35",
"<. c #E7C53C",
"1. c #E9C73E",
"2. c #F1CD34",
"3. c #F1CC39",
"4. c #F3D135",
"5. c #F3D23C",
"6. c #D4BE46",
"7. c #DBBC42",
"8. c #EAB742",
"9. c #E5BC43",
"0. c #EABB43",
"q. c #EBBE49",
"w. c #EBC344",
"e. c #ECCC44",
"r. c #EDC44A",
"t. c #E5CE4E",
"y. c #ECCB4B",
"u. c #F1CC44",
"i. c #F1CD4C",
"p. c #EED14D",
"a. c #F3D344",
"s. c #F3D54D",
"d. c #F6DA4E",
"f. c #EFCB51",
"g. c #F1CE52",
"h. c #EFD250",
"j. c #F2D555",
"k. c #F3D852",
"l. c #F3D75B",
"z. c #F4DB5C",
"x. c #F6E05F",
"c. c #F6DC63",
"v. c #F7E265",
/* pixels */
"              . & 5 *                   ",
"                6 b 3                   ",
"              . B [ u                   ",
"              & ] e.B +                 ",
"            X 7 7.i.H 4                 ",
"            @ A y.j.7.b                 ",
"            > <.j.z.y.G .               ",
"          X d e.l.c.h.' 4               ",
"  . X X X > D i.l.z.f.9.N & X X . .     ",
"O > t d b A 7.l.j.a.i.r.' l s y 2 : X   ",
"8 n H } 1.e.j.z.a.,.u.g.w.@.@.! C j 4 : ",
"_ 6.t.j.l.z.z.s.3.;.,.e.f.r.9.@.^ E F v ",
"e.k.x.v.x.x.d.5.;.=.-.>.r.r.w.q.%.O.~ S ",
"D e.z.v.d.5.4.2.;.-.....o. .*.q.+.( p < ",
"7 ) t.x.d.4.:.;.-.-...P L L #.8.| m %   ",
"o d <.p.z.a.:.:.-.=...L L *.q.+.~ < .   ",
"  & Z <.l.s.2.-.=.=.P L L q.8.R f .     ",
"  . > [ h.l.3.=.=...P L L 0.$.x +       ",
"    O N 9.j.u.=...P L L o.0./ p         ",
"    o u { j.i.=... .L L #.%.R 9         ",
"    o a { f.i.=.>.>.o. .X.%.T 0         ",
"    + k 7.i.u.>.w.r.*.o. .%.Q e         ",
"    @ V 9.g.i.r.r.q.0.0.%.8./ r         ",
"    @ S w.g.g.r.$.' O.q.8.8.Q f         ",
"    # F y.g.%.+.F c U / O.8.Q g         ",
"    # ! w.&.Y c i 2 r v I ` W g         ",
"    % | +.! i % # O # : r J K h         ",
"    & M c p #           = w z q         ",
"    O y ; + .           . + , ,         ",
"    o 1 o                   $ -         "
};
