/* XPM */
static char *_23[] = {
/* columns rows colors chars-per-pixel */
"30 55 255 2 ",
"   c #000000",
".  c #0A0403",
"X  c #180C07",
"o  c #19110C",
"O  c #26140A",
"+  c #2C170D",
"@  c #35190D",
"#  c #391E11",
"$  c #3F2019",
"%  c #3B2E2E",
"&  c #372F34",
"*  c #362F35",
"=  c #441E0E",
"-  c #462716",
";  c #502B13",
":  c #5A2C17",
">  c #60281F",
",  c #6A3A1E",
"<  c #743C1A",
"1  c #4D312A",
"2  c #503229",
"3  c #59362A",
"4  c #433637",
"5  c #653827",
"6  c #783928",
"7  c #613F33",
"8  c #7F421E",
"9  c #76482A",
"0  c #714932",
"q  c #794833",
"w  c #523E40",
"e  c #584948",
"r  c #5C4F50",
"t  c #5E5354",
"y  c #655758",
"u  c #6A5C5D",
"i  c #705A51",
"p  c #73605D",
"a  c #6A5D63",
"s  c #735E60",
"d  c #6E6266",
"f  c #736465",
"g  c #74656B",
"h  c #77686A",
"j  c #7A6D6D",
"k  c #7A6D72",
"l  c #7E7275",
"z  c #7E7279",
"x  c #8B3715",
"c  c #873E29",
"v  c #88481D",
"b  c #984F1E",
"n  c #AD5419",
"m  c #BF651C",
"M  c #874928",
"N  c #994727",
"B  c #934C2C",
"V  c #8D5626",
"C  c #985829",
"Z  c #894835",
"A  c #924C33",
"S  c #9B4D34",
"D  c #985735",
"F  c #A6492D",
"G  c #A3542B",
"H  c #A55728",
"J  c #BA5A26",
"K  c #A94934",
"L  c #A45333",
"P  c #A55E34",
"I  c #AB5C38",
"U  c #B45938",
"Y  c #8C6536",
"T  c #9A6639",
"R  c #99703F",
"E  c #A86228",
"W  c #B76829",
"Q  c #B8772B",
"!  c #A46235",
"~  c #A76736",
"^  c #AC643B",
"/  c #A36B3C",
"(  c #AC6B3C",
")  c #B26333",
"_  c #B66937",
"`  c #BB643D",
"'  c #B26B3B",
"]  c #A87438",
"[  c #AC753C",
"{  c #BA753A",
"}  c #CE591E",
"|  c #C65A26",
" . c #C65D3B",
".. c #C56725",
"X. c #CB642A",
"o. c #D76928",
"O. c #C67529",
"+. c #D6762C",
"@. c #C3673C",
"#. c #C6773B",
"$. c #D87836",
"%. c #E3762C",
"&. c #E57B2C",
"*. c #9C4F41",
"=. c #B15E42",
"-. c #946440",
";. c #A76C41",
":. c #BA6942",
">. c #A77545",
",. c #AC7343",
"<. c #BC7542",
"1. c #B77848",
"2. c #B37D52",
"3. c #836B69",
"4. c #88726E",
"5. c #826F74",
"6. c #837375",
"7. c #8C7476",
"8. c #83747B",
"9. c #89767C",
"0. c #87787C",
"q. c #8B7A7E",
"w. c #957A76",
"e. c #DC5D41",
"r. c #E75D46",
"t. c #C76943",
"y. c #D36C44",
"u. c #D96C43",
"i. c #D86946",
"p. c #C77746",
"a. c #CB7443",
"s. c #D77949",
"d. c #D97D52",
"f. c #E96749",
"g. c #F06B4F",
"h. c #E4774D",
"j. c #F56B52",
"k. c #E97952",
"l. c #F57958",
"z. c #BA863E",
"x. c #EA8B18",
"c. c #D2802B",
"v. c #CC8A39",
"b. c #D88939",
"n. c #D8923B",
"m. c #EB9E35",
"M. c #F09237",
"N. c #AD8144",
"B. c #BA8348",
"V. c #BA8552",
"C. c #93827E",
"Z. c #BD8D61",
"A. c #C5884A",
"S. c #D38345",
"D. c #D8874A",
"F. c #C9934B",
"G. c #DE9C43",
"H. c #D39C4C",
"J. c #C88552",
"K. c #C28C54",
"L. c #CB8A54",
"P. c #C38C5B",
"I. c #CA8D5C",
"U. c #DA8952",
"Y. c #C69255",
"T. c #CB9657",
"R. c #C6925E",
"E. c #CB925C",
"W. c #D79656",
"Q. c #D49E5C",
"!. c #E2874B",
"~. c #F38F41",
"^. c #E69747",
"/. c #E48453",
"(. c #E48A55",
"). c #E98B57",
"_. c #EB8C5B",
"`. c #F5885D",
"'. c #EB9255",
"]. c #EC935B",
"[. c #E99A58",
"{. c #F2995C",
"}. c #DCA24C",
"|. c #DAA75B",
" X c #E5A44B",
".X c #F8B346",
"XX c #E4A55A",
"oX c #F1A65B",
"OX c #EAB55A",
"+X c #F5B755",
"@X c #C38F62",
"#X c #C79364",
"$X c #CB9463",
"%X c #CE996B",
"&X c #D39564",
"*X c #D19B62",
"=X c #DB9E65",
"-X c #D39B6B",
";X c #D99E6C",
":X c #CE9C73",
">X c #D59E72",
",X c #D09F79",
"<X c #F58961",
"1X c #EF9862",
"2X c #F49767",
"3X c #D5A362",
"4X c #DCAA63",
"5X c #D4A269",
"6X c #DCA46A",
"7X c #D6A172",
"8X c #D9A372",
"9X c #DBAC75",
"0X c #D9A87A",
"qX c #DEB178",
"wX c #E9A261",
"eX c #F5A866",
"rX c #E7B667",
"tX c #F6B46C",
"yX c #E0AE77",
"uX c #E7B977",
"iX c #E2B57C",
"pX c #EABC7C",
"aX c #FBC15B",
"sX c #F4C16D",
"dX c #EEC278",
"fX c #F5C77A",
"gX c #8C7B82",
"hX c #897984",
"jX c #927D84",
"kX c #8D8084",
"lX c #938284",
"zX c #95848B",
"xX c #99878E",
"cX c #9C8A8D",
"vX c #978792",
"bX c #9C8C92",
"nX c #A69396",
"mX c #DCAD83",
"MX c #E5B887",
"NX c #E9BD84",
"BX c #E9BD8A",
"VX c #F4BB82",
"CX c #E8BD94",
"ZX c #EBC28A",
"AX c #F4C888",
"SX c #FCD286",
"DX c #ECC394",
"FX c #EBC49C",
"GX c #F2CB93",
"HX c #F3CC9B",
"JX c #F7D198",
"KX c #F3CBA2",
"LX c #F3CFA9",
"PX c #F6D2A5",
"IX c #F8D6A9",
/* pixels */
"                                                            ",
"                  . . o O # # @ @ + o X . .                 ",
"            . X - , N ) X.| X.} X.X.J H v : + .             ",
"          X < { &.o.o.o.} o.%.c.J X.&.X.} o.X.< O           ",
"        @ b &.M.X.b.!...$.S.U.W.$.U.U.^.@.| &.%.J =         ",
"      - +.$.a.[.=X0X*X1.P.%X:X@XP.:X&X;XJ.b.U.^.&.J +       ",
"    O $.~.XXQ.2.,X,XP.2.,.1.2.1.1.1.( 7X>X;XE.L.[.M.b .     ",
"    M ~.[.0X0X:X,X2./ T / ;./ / ;.P E $X-X;X;X$X;X^.$.=     ",
"  o _ b.5XmXmXmXZ.T >.,.,.,.,.,./ ;.( [ J.&X>X%X&X&X~.v .   ",
"  - ^.D.mXmXmX0X] >.1.,.( / ( / ,.,.,.( ' J.P.L.&X&X'.W X   ",
"  ; oX=X,X%XMX5X/ / ,.<.p.:.:.' <.<.<.B.( @.L.P.L.&X!.X.O   ",
"  : !.=X7X:XMXY.D ! <.s.U.U.U.D.p.D.D.U.J.) p.P.&X>XD.X.@   ",
"  = $.iXMXMXqX] C ( p.!.oXeXeXeXeXoXoX[.W.<._ J.-X0X=X$.#   ",
"  @ $.VXmXMX8X~ ! { $.'.eXeXtXtXeXeXoX'.D.p.E S.&X7XwX+.O   ",
"  X I eXFXBX=X[ ,.p.s.!.].{.eXeXeX[.].!.s.#.P #.I.>X[.v .   ",
"    : S.AXMX=X{ <.S.D.(.'.].{.oX1X1X'.!.!.#.D ' I.&XP X     ",
"    o ! XXNXQ.] ( D.].'.].].].).].1X'.(.'.S.C ' &X' o       ",
"    o T W.ZXH.C ^ S.s.(.].).).(._.].(.s.a.p.! ~ $X{ M - .   ",
"  o T |.pXMXF.V ! p.` ^ a./.).(./.a.I G ' @.P P J.&XwXS.H # ",
"O A.tXAXDXBXY.v ' p.a.) N t./.k.y.G N ^ ` ` ! v J.%X=XwX[.{ ",
"~ fXJXDXCXBXK.M U @.p.p.I L s.d.U N =.1.=.I P M p.E.>X8XQ.W.",
"tXAXPXDXDXNXN.V ) P D D P S y.k.F S D M M S I C ~ I.;X6X;XwX",
"SXJXHXKXKXMXN.B P D Z 6 Z L d._.U L Z 5 9 M ^ P ) *X8X*X=X=X",
"JXIXpXyXFXMX>.! _ *.q , A t.&X1Xs.:.D 9 9 G p.I ) E.-X-X6X=X",
"GXIXVXyXiX*X>.' U.I D A =.d.2X2X/.d.:.D D ` U.) ( *X7X7X8X6X",
"JXHXPXBXqXY.V.p.{.d.:.t.d./._.2X/.).d.s.d._.).G ~ T.*X%X8X;X",
"IXHXGXKXKXiXB.p.'.].<X<X_.h._.2Xs.h.].`.`._.!.G { K.>X7X-X>X",
"IXJXGXLXKXMXA.{ k.l.<X2X/.u._.2Xs.u.`.<Xl.k.u.b { %X8X7X>X>X",
"PXIXIXKXDXMXF._ h.l.l.l.f.i.d.h.y.u.l.l.j.h.@.v B.:X7X%X-X-X",
"IXIXIXKXDXDX|._ s.k.j.j.h.U F K F u.l.j.r.f.U b A.P.:X7X-XE.",
"IXIXIXLXFXZX|.Q y.f.f.g.l.@.N N N u.j.f.r.i.G C B.@X:X:X$X-X",
"JXJXPXHXFXMXOX#.t.f.f.g.`.).s.a.@.h.f.r.e.y.v C V.@X:X:X$X$X",
"AXdXJXHXZXMX|.v.:.s.i.g./._./.U.(.h.e.e.e.` v T 1.V.%X%XR.$X",
"fXGXiXGXFXZXH.v._ t.i.t.t.t.K K =. . .t. .L v ] [ P.%XP.K.P.",
"fXGX5XZXHXHX-XQ W ) :.U K K K K c N L ` U v C [ V.P.Z.V.R.K.",
"dXHXIXDXqX3XqXH.z.v A B Z K U K S B B S Z < T 2.V.@X#XK.P.Y.",
"OXsXdXdXH.B.5XiXH.C 6 Z c 6 c 6 6 6 c 9 5 v 2.N.N.$X#XY.V.L.",
" XdX4XiX4XF.B.DX4XB., A =.6 > > 6 A 6 > , [ P.Y.V.K.P.1.K.v.",
"n.fXZXdXZXqX9XBXqX|.T q =.=.6 6 S S 3 = Y V.V.$X%XV.V.T K.O.",
"n.sXZXdXZXiXNXiXiX3X#XD Z *.Z c Z 5 $ 9 B.A.Y.Y.Y.R.%XP.W...",
"Q aXdXpXZXMX4XT.5X3X|.F.Y 0 0 0 3 1 9 N.K.Y.T.K.B.R.Q.T.S...",
"Q .XsXpX4XBXqXF.3X4XQ.Q.z.N.>.R Y >.Y.Y.R.Q.|.T.Y.Q.F.A.v.n ",
">.x.OXZX4XpXuXrXOXOXOX4X}.}.}.G.}. X}.G.G.n.m.n.^.G.n.v.m n ",
"w.O.m.+X.X+X+X.Xm.m.m.n.b.n.O.O.O.+.O...W E b E E H n b x v ",
"cXC.2.] R R R >.Y R R 0 9 7 5 7 5 7 7 3 2 1 1 1 - 3 7 7 3 q ",
"xXcXw.p 0 e i y a d a t t 4 * % * * & & 4 4 4 r e y i i i -.",
"lXcXq.4.t r d k k d y u d t e 4 * % % 4 w w i f f 4.j h 7.4.",
"cXcXlXC.p t l l j z h y t t y e e e e e r s h h 0.7.4.3.7.7.",
"cXnXcXlXq.u f j j l C.z z j d u t u r p h 6.6.6.hX5.5.3.7.7.",
"cXbXbXq.lX7.j 6.0.l z z z 0.hXz l l j l j j 4.q.7.5.7.7.w.7.",
"zXvXbXzXlXq.C.6.l zXz k g g g d j j d f f q.kXq.7.9.jX5.8.7.",
"zXjXbXbXzXC.kXk 0.kXkXlX0.g d a a a u j 0.jXzXgX5.9.jXhX5.jX",
"vXvXbXbXzXzXq.8.z z hXcXzXz 5.hXhX8.9.9.0.8.jX5.5.hXjXjXjXq.",
"zXvXhXhXzXlXlXkXz z hXkXgXhXgXzXgXq.zXq.0.lXhXg 5.hXjX8.jXjX",
"xXhXhXz 8.0.kXgXz hXhXgXzXvXxXbXxX0.zX8.8.cX9.hXhXhXjXjXjXjX"
};
