/* XPM */
static char *_496073710660[] = {
/* columns rows colors chars-per-pixel */
"9 13 70 1 ",
"  c black",
". c #050400",
"X c #090600",
"o c #090702",
"O c #0D0A01",
"+ c #110B00",
"@ c #130B01",
"# c #160D00",
"$ c #1A1001",
"% c #261C05",
"& c #2D2004",
"* c #362D0B",
"= c #492D03",
"- c #453309",
"; c #41370F",
": c #4C3A0D",
"> c #534815",
", c #665418",
"< c #695B1C",
"1 c #77601C",
"2 c #6F6221",
"3 c #845D13",
"4 c #8A6C1D",
"5 c #927623",
"6 c #A07E21",
"7 c #AF841E",
"8 c #BB8F29",
"9 c #BC962B",
"0 c #B29A32",
"q c #B89B35",
"w c #BCA232",
"e c #B9A038",
"r c #C48315",
"t c #EAB61D",
"y c #EBB81F",
"u c #C59327",
"i c #C59B2B",
"p c #C6992C",
"a c #D09729",
"s c #DFAE38",
"d c #DCB039",
"f c #EDB926",
"g c #EDBF24",
"h c #EFBB2D",
"j c #EDBB3B",
"k c #F1BD37",
"l c #F1BE3B",
"z c #F1BA3E",
"x c #EDC227",
"c c #EFC728",
"v c #EFC42B",
"b c #EFC43B",
"n c #F1CE38",
"m c #F4D43D",
"M c #DABE46",
"N c #E7C146",
"B c #EACF49",
"V c #ECCF4F",
"C c #F0C241",
"Z c #F4C544",
"A c #F3CA43",
"S c #F2CF43",
"D c #F6D14C",
"F c #F4D44F",
"G c #FAD94E",
"H c #F4D752",
"J c #FDD550",
"K c #FADF55",
"L c #FFDF5B",
"P c #FEE761",
/* pixels */
"   &>    ",
"   <wo   ",
"   eH*   ",
" .;VL5O  ",
"20MHSN94:",
"BPKnxbZj7",
"1Pmcgtl9$",
"OqGxtfs= ",
" ,Fcyh8o ",
" 1DACku+ ",
".5Jspza# ",
" 5i-&3r$ ",
" :%  o=@ "
};
